<!DOCTYPE svg PUBLIC "-//W3C//DTD SVG 1.1//EN" "http://www.w3.org/Graphics/SVG/1.1/DTD/svg11.dtd">
<svg width="800px" height="800px" viewBox="0 0 48 48" xmlns="http://www.w3.org/2000/svg" fill="#d51a1a" stroke="#d51a1a">
    <g id="SVGRepo_bgCarrier" stroke-width="0"/>
    <g id="SVGRepo_tracerCarrier" stroke-linecap="round" stroke-linejoin="round"/>
    <g id="SVGRepo_iconCarrier">
        <defs>
            <style>.a{fill:none;stroke:#fa0000;stroke-linecap:round;stroke-linejoin:round;}</style>
            <clipPath id="rhombus-clip">
                <path d="M4.21,22.12a2.87,2.87,0,0,0,0,3.77L22.12,43.8a2.87,2.87,0,0,0,3.77,0l17.9-17.91a2.85,2.85,0,0,0,0-3.77L25.89,4.21A2.68,2.68,0,0,0,24,3.51h0a2.66,2.66,0,0,0-1.88.71Z"/>
            </clipPath>
        </defs>

        <path class="a" d="M4.21,22.12a2.87,2.87,0,0,0,0,3.77L22.12,43.8a2.87,2.87,0,0,0,3.77,0l17.9-17.91a2.85,2.85,0,0,0,0-3.77L25.89,4.21A2.68,2.68,0,0,0,24,3.51h0a2.66,2.66,0,0,0-1.88.71Z"/>

        <g clip-path="url(#rhombus-clip)">
            <animateTransform attributeName="transform" type="rotate" values="0 24 24; 1.5 24 24; -1.5 24 24; 1.5 24 24; -1.5 24 24; 0 24 24; 0 24 24" keyTimes="0; 0.25; 0.35; 0.45; 0.55; 0.65; 1" dur="4s" repeatCount="indefinite" />

            <circle class="a" cx="24" cy="32.41" r="3.3" opacity="0">
                <animate attributeName="opacity" values="0; 1; 1; 0; 0" keyTimes="0; 0.15; 0.7; 0.85; 1" dur="4s" begin="0s" repeatCount="indefinite" />
            </circle>
            
            <line class="a" x1="24" y1="29.11" x2="24" y2="18.82" opacity="0">
                <animate attributeName="opacity" values="0; 1; 1; 0; 0" keyTimes="0; 0.15; 0.7; 0.85; 1" dur="4s" begin="0.2s" repeatCount="indefinite" />
            </line>

            <circle class="a" cx="24" cy="15.52" r="3.3" opacity="0">
                <animate attributeName="opacity" values="0; 1; 1; 0; 0" keyTimes="0; 0.15; 0.7; 0.85; 1" dur="4s" begin="0.4s" repeatCount="indefinite" />
            </circle>

            <line class="a" x1="17.4" y1="8.92" x2="21.67" y2="13.19" opacity="0">
                <animate attributeName="opacity" values="0; 1; 1; 0; 0" keyTimes="0; 0.15; 0.7; 0.85; 1" dur="4s" begin="0.6s" repeatCount="indefinite" />
            </line>
            
             <line class="a" x1="26.33" y1="17.85" x2="30.15" y2="21.67" opacity="0">
                <animate attributeName="opacity" values="0; 1; 1; 0; 0" keyTimes="0; 0.15; 0.7; 0.85; 1" dur="4s" begin="0.8s" repeatCount="indefinite" />
            </line>

            <circle class="a" cx="32.48" cy="24" r="3.3" opacity="0">
                <animate attributeName="opacity" values="0; 1; 1; 0; 0" keyTimes="0; 0.15; 0.7; 0.85; 1" dur="4s" begin="1.0s" repeatCount="indefinite" />
            </circle>
        </g>
    </g>
</svg>